<?xml version="1.0" encoding="utf-8"?>
<!-- Generator: Adobe Illustrator 25.2.0, SVG Export Plug-In . SVG Version: 6.00 Build 0)  -->
<svg version="1.1" id="Layer_1" xmlns="http://www.w3.org/2000/svg" xmlns:xlink="http://www.w3.org/1999/xlink" x="0px" y="0px"
	 viewBox="0 0 75.4 65" style="enable-background:new 0 0 75.4 65;" xml:space="preserve">
<style type="text/css">
	.st0{fill:#CC222C;}
</style>
<g>
	<path class="st0" d="M72.7,0h-70C1.2,0,0,1.2,0,2.7v51.9c0,1.5,1.2,2.7,2.7,2.7h19.4v6.5c0,0.7,0.6,1.3,1.3,1.3
		c0.3,0,0.7-0.1,0.9-0.4l7.4-7.4h11.9l7.4,7.4c0.5,0.5,1.3,0.5,1.8,0c0.2-0.2,0.4-0.6,0.4-0.9v-6.5h19.4c1.5,0,2.7-1.2,2.7-2.7V2.7
		C75.4,1.2,74.2,0,72.7,0z M38.7,49.3c-0.7,0.1-1.4,0.1-2,0c-3.5-0.5-6.3-3.2-6.7-6.7c-0.1-0.3-0.1-0.7-0.1-1c0-4.3,3.5-7.8,7.8-7.8
		s7.8,3.5,7.8,7.8c0,0.3,0,0.7-0.1,1C45,46.1,42.2,48.9,38.7,49.3z M48.1,42.3c0-0.2,0-0.5,0-0.7c0-5.7-4.7-10.4-10.4-10.4
		s-10.4,4.7-10.4,10.4c0,0.3,0,0.5,0,0.7l-7.1,7.1h-7.4c-0.5-2.6-2.5-4.5-5.1-5.1V12.9c2.6-0.5,4.5-2.5,5.1-5.1h49.7
		c0.5,2.6,2.5,4.5,5.1,5.1v31.5c-2.6,0.5-4.5,2.5-5.1,5.1h-7.4L48.1,42.3z M23.4,54.6h-4.7l9.3-9.3c0.1,0.3,0.2,0.5,0.3,0.8
		c0,0.1,0,0.1,0.1,0.2c0.2,0.4,0.5,0.8,0.7,1.2c0.1,0.1,0.2,0.2,0.2,0.3c0.3,0.4,0.5,0.7,0.9,1c0.1,0.1,0.1,0.1,0.2,0.2
		c0.3,0.3,0.6,0.6,1,0.8c0.1,0.1,0.3,0.2,0.4,0.3c0.4,0.3,0.8,0.5,1.2,0.7c0.1,0.1,0.2,0.1,0.3,0.1c0.2,0.1,0.4,0.2,0.7,0.3L30.3,55
		l-5.6,5.6v-4.7C24.7,55.2,24.1,54.6,23.4,54.6z M34.3,54.6L37,52c0.2,0,0.5,0,0.7,0c0.3,0,0.5,0,0.7,0l2.6,2.6H34.3z M52,54.6
		c-0.7,0-1.3,0.6-1.3,1.3v4.7l-9.3-9.3c0.3-0.1,0.5-0.2,0.8-0.3c0.1,0,0.1,0,0.2-0.1c0.4-0.2,0.9-0.5,1.2-0.8
		c0.1-0.1,0.2-0.2,0.3-0.2c0.4-0.3,0.7-0.6,1-0.9c0.1-0.1,0.1-0.1,0.2-0.2c0.3-0.3,0.6-0.6,0.8-1c0.1-0.1,0.2-0.3,0.3-0.4
		c0.3-0.4,0.5-0.7,0.7-1.1c0.1-0.1,0.1-0.2,0.2-0.4c0.1-0.2,0.2-0.4,0.3-0.7l9.3,9.2H52V54.6z M72.7,54.6H60.3L57.7,52h6
		c0.7,0,1.3-0.6,1.3-1.3c0-2.2,1.7-3.9,3.9-3.9c0.7,0,1.3-0.6,1.3-1.3V11.7c0-0.7-0.6-1.3-1.3-1.3c-2.2,0-3.9-1.7-3.9-3.9
		c0-0.7-0.6-1.3-1.3-1.3h-52c-0.7,0-1.3,0.6-1.3,1.3c0,2.2-1.7,3.9-3.9,3.9c-0.7,0-1.3,0.6-1.3,1.3v33.8c0,0.7,0.6,1.3,1.3,1.3
		c2.2,0,3.9,1.7,3.9,3.9c0,0.7,0.6,1.3,1.3,1.3h6l-2.6,2.6L2.6,54.5L2.7,2.6h70.1c0,0,0.1,0,0.1,0.1L72.7,54.6z"/>
	<path class="st0" d="M55.9,13H24.7c-0.7,0-1.3,0.6-1.3,1.3s0.6,1.3,1.3,1.3h31.2c0.7,0,1.3-0.6,1.3-1.3S56.6,13,55.9,13z"/>
	<path class="st0" d="M19.5,20.8h18.2c0.7,0,1.3-0.6,1.3-1.3c0-0.7-0.6-1.3-1.3-1.3H19.5c-0.7,0-1.3,0.6-1.3,1.3
		C18.2,20.2,18.8,20.8,19.5,20.8z"/>
	<path class="st0" d="M40.3,23.4H19.5c-0.7,0-1.3,0.6-1.3,1.3c0,0.7,0.6,1.3,1.3,1.3h20.8c0.7,0,1.3-0.6,1.3-1.3S41,23.4,40.3,23.4z
		"/>
	<path class="st0" d="M37.7,36.4c-2.9,0-5.2,2.3-5.2,5.2s2.3,5.2,5.2,5.2s5.2-2.3,5.2-5.2S40.6,36.4,37.7,36.4z M37.7,44.2
		c-1.4,0-2.6-1.2-2.6-2.6c0-1.4,1.2-2.6,2.6-2.6c1.4,0,2.6,1.2,2.6,2.6S39.1,44.2,37.7,44.2z"/>
	<path class="st0" d="M48.1,23.4h-2.6c-0.7,0-1.3,0.6-1.3,1.3c0,0.7,0.6,1.3,1.3,1.3h2.6c0.7,0,1.3-0.6,1.3-1.3
		C49.4,24,48.8,23.4,48.1,23.4z"/>
	<path class="st0" d="M55.9,18.2h-13c-0.7,0-1.3,0.6-1.3,1.3c0,0.7,0.6,1.3,1.3,1.3h13c0.7,0,1.3-0.6,1.3-1.3
		C57.2,18.8,56.6,18.2,55.9,18.2z"/>
</g>
</svg>
