<?xml version="1.0" encoding="utf-8"?>
<!-- Generator: Adobe Illustrator 25.2.0, SVG Export Plug-In . SVG Version: 6.00 Build 0)  -->
<svg version="1.1" id="Layer_1" xmlns="http://www.w3.org/2000/svg" xmlns:xlink="http://www.w3.org/1999/xlink" x="0px" y="0px"
	 viewBox="0 0 65 39.4" style="enable-background:new 0 0 65 39.4;" xml:space="preserve">
<style type="text/css">
	.st0{fill:#CC222C;}
</style>
<g>
	<path class="st0" d="M22.8,17.1v10.7c0,0.2,0.1,0.5,0.2,0.7c0.2,0.2,0.4,0.2,0.7,0.2l0,0h18.2c0.2,0,0.5-0.1,0.7-0.2
		c0.2-0.2,0.2-0.4,0.2-0.7V17.5l3.2,2.8l1.2-1.4l-13.8-12c-0.4-0.3-0.9-0.3-1.2,0l-14.3,12l1.2,1.4L22.8,17.1z M32.7,8.7l8.2,7.1
		v11.1h-9.8v-4.7c0-0.4,0.2-0.9,0.5-1.2c0.3-0.3,0.7-0.5,1.2-0.5l0,0c0.4,0,0.9,0.2,1.2,0.5s0.5,0.7,0.5,1.2v3.3h1.8v-3.3
		c0-1.9-1.6-3.5-3.5-3.5l0,0c-1.9,0-3.5,1.6-3.5,3.5l0,0V27h-4.7V15.6L32.7,8.7z"/>
	<path class="st0" d="M0,32.7c0,3.9,2.4,6.7,6,6.7h53c3.5,0,6-2.7,6-6.7c0-0.5-0.4-0.9-0.9-0.9h-6V6.3C58,2.8,55.1,0,51.5,0H13.4
		C9.9-0.1,6.9,2.7,6.9,6.3v25.5h-6C0.4,31.8,0,32.2,0,32.7z M12.6,33.6v-1.8h-4V6.3c0.1-2.6,2.2-4.5,4.7-4.4h38.2
		c2.6-0.1,4.6,1.9,4.7,4.4v25.5H16.4v1.8h46.7c-0.2,2-1.5,3.9-4.1,3.9H6c-2.6,0-3.8-2-4.1-3.9H12.6z"/>
</g>
</svg>
