<?xml version="1.0" encoding="utf-8"?>
<!-- Generator: Adobe Illustrator 25.2.0, SVG Export Plug-In . SVG Version: 6.00 Build 0)  -->
<svg version="1.1" id="Layer_1" xmlns="http://www.w3.org/2000/svg" xmlns:xlink="http://www.w3.org/1999/xlink" x="0px" y="0px"
	 viewBox="0 0 51.7 50" style="enable-background:new 0 0 51.7 50;" xml:space="preserve">
<style type="text/css">
	.st0{fill:#CC222C;}
</style>
<g>
	<path class="st0" d="M39.6,44h-8.1c-0.6,0-1,0.4-1,1s0.4,1,1,1h8.1c0.6,0,1-0.4,1-1S40.2,44,39.6,44z"/>
	<path class="st0" d="M39.6,4h-8.1c-0.6,0-1,0.4-1,1s0.4,1,1,1h8.1c0.6,0,1-0.4,1-1S40.2,4,39.6,4z"/>
	<path class="st0" d="M5.8,36.1c0-1.4-0.9-2.5-2.2-2.9v-10l4.7,1.7v7.6c0,0.3,0.1,0.5,0.4,0.6c0.2,0.1,4.9,3,11,3.3
		c0,0.1,0,10.4,0,9.8c0,1.8,1.3,3.3,3,3.7c0.2,0.1,0.5,0.1,0.8,0.1h24.4c2.1,0,3.8-1.7,3.8-3.8V3.7c0-1-0.4-1.9-1-2.5l-0.1-0.1l0,0
		C49.7,0.4,48.8,0,47.8,0H23.4c-2,0-3.7,1.6-3.7,3.7l0,0l0,0l0,0c0,0.1,0,10.2,0,10.3C2.2,21.6,1.8,21,1.9,22c0,0.2,0.1,0.5,0.3,0.6
		v10.6C0.9,33.5,0,34.7,0,36.1c0,1.6,1.3,3,3,3S5.8,37.7,5.8,36.1z M9.8,25.5l10.6,3.9c0.1,0,0.2,0,0.3,0s0.2,0,0.3,0l10.6-3.9v6.7
		c-1.3,0.7-5.7,2.9-10.9,2.9s-9.6-2.2-10.9-2.9C9.8,32.2,9.8,25.5,9.8,25.5z M39,21.4l-17.4-7.3V10h27.9v30H21.6v-3.5
		c6.1-0.3,10.8-3.2,11-3.3s0.4-0.4,0.4-0.6V25l6-2.2c0.3-0.1,0.5-0.4,0.5-0.7C39.5,21.8,39.3,21.5,39,21.4z M49,2.5L49,2.5
		c0.3,0.3,0.5,0.8,0.5,1.2V8H21.6V3.7l0,0c0-0.1,0-0.2,0-0.3C21.8,2.6,22.5,2,23.4,2h24.4C48.2,2,48.7,2.2,49,2.5L49,2.5z M47.8,48
		H23.4c-0.1,0-0.2,0-0.4,0c-0.8-0.2-1.4-0.9-1.4-1.7V42h27.9v4.3C49.5,47.2,48.7,48,47.8,48z M20.6,15.3l16,6.7l-16,5.9L4.6,22
		L20.6,15.3z M1.4,36.1c0-0.8,0.7-1.5,1.5-1.5s1.5,0.7,1.5,1.5s-0.7,1.5-1.5,1.5S1.4,36.9,1.4,36.1z"/>
</g>
</svg>
