<?xml version="1.0" encoding="utf-8"?>
<!-- Generator: Adobe Illustrator 25.2.0, SVG Export Plug-In . SVG Version: 6.00 Build 0)  -->
<svg version="1.1" id="Layer_1" xmlns="http://www.w3.org/2000/svg" xmlns:xlink="http://www.w3.org/1999/xlink" x="0px" y="0px"
	 viewBox="0 0 65 66.8" style="enable-background:new 0 0 65 66.8;" xml:space="preserve">
<style type="text/css">
	.st0{fill:#00829D;}
</style>
<g>
	<path class="st0" d="M55.9,44.5l-23,4L26.4,42c-0.2-0.2-0.5-0.3-0.8-0.3H13.9c0-0.6-0.5-1.2-1.2-1.2H8.1H0v2.3h7V59H0v2.3h8.1h4.6
		c0.6,0,1.2-0.5,1.2-1.2h3.2l12.4,6.2c0.5,0.3,1.1,0.4,1.7,0.4c0.7,0,1.3-0.2,1.9-0.5l25.3-14.8c1.2-0.7,1.9-1.9,1.9-3.3
		c0-1.1-0.5-2.2-1.4-2.9C58.1,44.6,57,44.3,55.9,44.5z M11.6,59.1H9.3V42.8h2.3V59.1z M57.3,49.5L32,64.3c-0.4,0.3-1,0.3-1.4,0
		L17.9,58c-0.2-0.1-0.3-0.1-0.5-0.1h-3.5V44H25l9.1,9.1c0.4,0.4,0.6,0.9,0.6,1.5c0,1.2-1,2.1-2.1,2.1c-0.6,0-1.1-0.2-1.5-0.6l-6-6
		l-1.6,1.6l6,6c0.8,0.8,2,1.3,3.1,1.3c2.4,0,4.4-2,4.4-4.4c0-1.2-0.5-2.3-1.3-3.1l-0.9-0.9l21.4-3.7c0.4-0.1,0.9,0,1.2,0.3
		s0.5,0.7,0.5,1.1C58,48.8,57.8,49.3,57.3,49.5z"/>
	<path class="st0" d="M65,8V5.7h-7.3c-0.2-0.2-0.5,0-0.8,0h-4.6c-0.6,0-1.2,0-1.2,1.2h-3.2L35.5,0.4c-1.2-0.6-2.5-0.6-3.6,0
		L6.5,15.2c-1.2,0.7-1.9,1.9-1.9,3.3c0,1.1,0.5,2.2,1.4,2.9c0.7,0.6,1.6,0.9,2.4,0.9c0.2,0,0.4,0,0.7-0.1l23-4l6.5,6.7
		c0.2,0.2,0.5,0.5,0.8,0.5H51c0,0,0.5,1.2,1.2,1.2H56c0.2,0,0.5,0,0.8,0H65v-2.3h-7V8H65z M39.9,23.1l-9.1-9.3
		c-0.4-0.4-0.6-1-0.6-1.6c0-1.2,1-2.2,2.1-2.2c0.6,0,1.1,0.2,1.5,0.6l6,6l1.6-1.6l-6-6c-0.8-0.8-2-1.3-3.1-1.3c-2.4,0-4.4,2-4.4,4.4
		c0,1.2,0.5,2.3,1.3,3.1l0.9,0.9L8.7,19.9c-0.4,0.1-0.9,0-1.2-0.3C7.2,19.3,7,18.9,7,18.4s0.3-1,0.7-1.3L33,2.4c0.4-0.2,1-0.3,1.4,0
		l12.7,6.5c0.2,0.1,0.3,0.3,0.5,0.3h3.5v13.9C51.1,23.1,39.9,23.1,39.9,23.1z M53.4,8h2.3v16.2h-2.3V8z"/>
	<path class="st0" d="M32.5,27.8c-1.9-1.7-4.8-1.6-6.7,0.1c-0.9,0.9-1.4,2.1-1.4,3.3c0,1.3,0.5,2.4,1.4,3.3l5.9,5.6
		c0.2,0.2,0.5,0.3,0.8,0.3s0.6-0.1,0.8-0.3l5.9-5.6c0.9-0.9,1.4-2.1,1.4-3.3c0-1.3-0.5-2.4-1.4-3.3l0,0
		C37.3,26.2,34.4,26.1,32.5,27.8z M37.6,32.9l-5.1,4.8l-5.1-4.8c-0.5-0.4-0.7-1-0.7-1.6s0.3-1.2,0.7-1.6c0.5-0.5,1.2-0.7,1.8-0.7
		c0.7,0,1.3,0.2,1.8,0.7l0.7,0.6c0.4,0.4,1.2,0.4,1.6,0l0.7-0.6c1-1,2.6-1,3.6,0c0.5,0.4,0.7,1,0.7,1.6S38,32.4,37.6,32.9z"/>
	<path class="st0" d="M19,24.4l-1.9-1.3c-0.5,0.7-0.9,1.4-1.2,2.1l2.1,1C18.3,25.7,18.6,25,19,24.4z"/>
	<path class="st0" d="M14.3,37.3c0.2,0.8,0.4,1.6,0.7,2.4l2.2-0.8c-0.2-0.7-0.4-1.4-0.6-2.1L14.3,37.3z"/>
	<path class="st0" d="M14.3,29.9l2.3,0.4c0.1-0.7,0.3-1.4,0.6-2.1L15,27.5C14.6,28.3,14.4,29.1,14.3,29.9z"/>
	<path class="st0" d="M13.9,33.5c0,0.5,0,0.9,0,1.3l2.3-0.2c0-0.4,0-0.8,0-1.2c0-0.3,0-0.7,0-1l-2.2,0
		C13.9,32.8,13.9,33.1,13.9,33.5z"/>
	<path class="st0" d="M47.8,28.1c0.2,0.7,0.4,1.4,0.6,2.1l2.3-0.5c-0.2-0.8-0.4-1.6-0.7-2.4L47.8,28.1z"/>
	<path class="st0" d="M46,42.6l1.9,1.3c0.5-0.7,0.9-1.4,1.2-2.1l-2.1-1C46.7,41.4,46.4,42,46,42.6z"/>
	<path class="st0" d="M47.9,38.7l2.2,0.7c0.3-0.8,0.5-1.6,0.6-2.4l-2.3-0.4C48.3,37.4,48.1,38.1,47.9,38.7z"/>
	<path class="st0" d="M51.1,33.5c0-0.5,0-0.9,0-1.4l-2.3,0.2c0,0.4,0,0.8,0,1.2c0,0.3,0,0.7,0,1l2.3,0.1
		C51.1,34.3,51.1,33.9,51.1,33.5z"/>
</g>
</svg>
