<?xml version="1.0" encoding="utf-8"?>
<!-- Generator: Adobe Illustrator 25.2.0, SVG Export Plug-In . SVG Version: 6.00 Build 0)  -->
<svg version="1.1" id="Layer_1" xmlns="http://www.w3.org/2000/svg" xmlns:xlink="http://www.w3.org/1999/xlink" x="0px" y="0px"
	 viewBox="0 0 15.3 12" style="enable-background:new 0 0 15.3 12;" xml:space="preserve">
<style type="text/css">
	.st0{fill:#FFFFFF;}
</style>
<g>
	<g>
		<g>
			<path class="st0" d="M7.9,0.9c0.7,0.6,1.5,1.2,2.2,1.8c1.2,1,2.3,2,3.5,2.9c0.3,0.2,0.5,0.5,0.8,0.7c0-0.3,0-0.5,0-0.8
				c-0.7,0.6-1.5,1.2-2.2,1.8c-1.2,1-2.3,2-3.5,2.9c-0.3,0.2-0.5,0.5-0.8,0.7c-0.2,0.2-0.2,0.6,0,0.8c0.2,0.2,0.5,0.2,0.8,0
				c0.7-0.6,1.5-1.2,2.2-1.8c1.2-1,2.3-2,3.5-2.9c0.3-0.2,0.5-0.5,0.8-0.7c0.2-0.2,0.2-0.6,0-0.8C14.4,5,13.7,4.4,13,3.8
				c-1.2-1-2.3-2-3.5-2.9C9.2,0.6,8.9,0.4,8.7,0.2C8.4,0,8.1-0.1,7.9,0.2C7.7,0.3,7.7,0.7,7.9,0.9L7.9,0.9z"/>
		</g>
	</g>
	<g>
		<g>
			<path class="st0" d="M0.2,0.9c0.7,0.6,1.5,1.2,2.2,1.8c1.2,1,2.3,2,3.5,2.9c0.3,0.2,0.5,0.5,0.8,0.7c0-0.3,0-0.5,0-0.8
				C5.9,6.2,5.2,6.8,4.5,7.5c-1.2,1-2.3,2-3.5,2.9c-0.3,0.2-0.5,0.5-0.8,0.7c-0.2,0.2-0.2,0.6,0,0.8c0.2,0.2,0.5,0.2,0.8,0
				c0.7-0.6,1.5-1.2,2.2-1.8c1.2-1,2.3-2,3.5-2.9c0.3-0.2,0.5-0.5,0.8-0.7c0.2-0.2,0.2-0.6,0-0.8C6.7,5,6,4.4,5.2,3.8
				c-1.2-1-2.3-2-3.5-2.9C1.5,0.6,1.2,0.4,0.9,0.2C0.7,0,0.4-0.1,0.2,0.2C0,0.3-0.1,0.7,0.2,0.9L0.2,0.9z"/>
		</g>
	</g>
</g>
</svg>
