<?xml version="1.0" encoding="utf-8"?>
<!-- Generator: Adobe Illustrator 25.2.0, SVG Export Plug-In . SVG Version: 6.00 Build 0)  -->
<svg version="1.1"
	 id="Layer_1" xmlns:cc="http://creativecommons.org/ns#" xmlns:dc="http://purl.org/dc/elements/1.1/" xmlns:inkscape="http://www.inkscape.org/namespaces/inkscape" xmlns:rdf="http://www.w3.org/1999/02/22-rdf-syntax-ns#" xmlns:sodipodi="http://sodipodi.sourceforge.net/DTD/sodipodi-0.dtd" xmlns:svg="http://www.w3.org/2000/svg"
	 xmlns="http://www.w3.org/2000/svg" xmlns:xlink="http://www.w3.org/1999/xlink" x="0px" y="0px" viewBox="0 0 14.6 13"
	 style="enable-background:new 0 0 14.6 13;" xml:space="preserve">
<style type="text/css">
	.st0{fill:#00829D;}
</style>
<g transform="translate(0,-952.36218)">
	<path class="st0" d="M0.5,952.4c-0.3,0-0.5,0.2-0.5,0.5s0.2,0.5,0.5,0.5H2l1.7,7.9c0.1,0.3,0.3,0.5,0.5,0.5h8.1
		c0.3,0,0.5-0.2,0.5-0.5s-0.2-0.5-0.5-0.5H4.6l-0.2-1H13c0.2,0,0.4-0.2,0.5-0.4l1.1-4.9c0.1-0.3-0.2-0.6-0.5-0.6h-11l-0.3-1.2
		c0-0.2-0.3-0.4-0.5-0.4H0.5V952.4z M3.4,955h10.1l-0.9,3.9H4.2L3.4,955z M5.8,962.1c-0.9,0-1.6,0.7-1.6,1.6c0,0.9,0.7,1.6,1.6,1.6
		s1.6-0.7,1.6-1.6S6.7,962.1,5.8,962.1z M10.7,962.1c-0.9,0-1.6,0.7-1.6,1.6c0,0.9,0.7,1.6,1.6,1.6s1.6-0.7,1.6-1.6
		S11.6,962.1,10.7,962.1z M5.8,963.1c0.4,0,0.6,0.3,0.6,0.7s-0.3,0.7-0.6,0.7c-0.4,0-0.6-0.3-0.6-0.7S5.5,963.1,5.8,963.1z
		 M10.7,963.1c0.4,0,0.6,0.3,0.6,0.7s-0.3,0.7-0.6,0.7c-0.4,0-0.6-0.3-0.6-0.7S10.4,963.1,10.7,963.1z"/>
</g>
</svg>
