<?xml version="1.0" encoding="utf-8"?>
<!-- Generator: Adobe Illustrator 25.2.0, SVG Export Plug-In . SVG Version: 6.00 Build 0)  -->
<svg version="1.1" id="Layer_1" xmlns="http://www.w3.org/2000/svg" xmlns:xlink="http://www.w3.org/1999/xlink" x="0px" y="0px"
	 viewBox="0 0 65 65.4" style="enable-background:new 0 0 65 65.4;" xml:space="preserve">
<style type="text/css">
	.st0{fill:#00829D;}
</style>
<path class="st0" d="M62.7,47.3l-8.1-8.1c-1.4-1.5-3-2.2-4.8-2.2s-3.5,0.8-4.9,2.2l-4.7,4.7c-0.4-0.2-0.8-0.4-1.3-0.6
	c-0.6-0.3-1.1-0.5-1.5-0.8c-4.4-2.8-8.3-6.4-12.2-11.1C23.3,29,22,27,21.1,24.9c1.3-1.1,2.4-2.3,3.5-3.5c0.4-0.4,0.8-0.8,1.3-1.3
	c1.5-1.5,2.3-3.2,2.3-5s-0.8-3.5-2.3-5l-4-4c-0.5-0.5-0.9-0.9-1.3-1.4c-0.9-0.9-1.8-1.8-2.8-2.7c-1.4-1.4-3-2.1-4.8-2.1
	S9.7,0.7,8.2,2.1l-5,5.2C1.3,9.1,0.3,11.4,0.1,14c-0.3,3.3,0.4,6.6,1.9,10.8c2.3,6.4,5.9,12.4,11.2,18.7c6.4,7.6,14.1,13.7,23,18
	c3.4,1.6,7.9,3.5,12.9,3.8c0.3,0,0.6,0,0.9,0c3.3,0,6.2-1.2,8.3-3.6l0.1-0.1c0.8-0.9,1.6-1.8,2.6-2.7c0.6-0.6,1.3-1.3,1.9-1.9
	C65.7,54.1,65.7,50.2,62.7,47.3z M60.2,54.8c-0.6,0.6-1.1,1.2-1.8,1.8c-0.9,0.9-1.9,1.8-2.8,2.9c-1.6,1.6-3.3,2.4-5.7,2.4
	c-0.2,0-0.5,0-0.7,0c-4.4-0.3-8.5-2-11.6-3.5c-8.3-4-15.7-9.8-21.8-17c-5-6-8.4-11.7-10.6-17.7c-1.3-3.7-1.9-6.6-1.7-9.3
	c0.1-1.8,0.8-3.3,2.1-4.5l5-5C11.4,4,12.2,3.6,13,3.6s1.6,0.4,2.3,1.1c0.9,0.8,1.8,1.7,2.7,2.6c0.5,0.5,0.9,0.9,1.4,1.4l4,4
	c0.8,0.8,1.2,1.6,1.2,2.4s-0.4,1.6-1.2,2.4c-0.4,0.4-0.8,0.8-1.3,1.3c-1.3,1.3-2.4,2.5-3.7,3.6l-0.1,0.1c-1.1,1.1-1,2.3-0.7,3.1
	c0,0.1,0,0.1,0.1,0.1c1.1,2.5,2.5,4.9,4.7,7.7c4,5,8.3,8.8,13,11.9c0.6,0.4,1.2,0.7,1.8,1s1.1,0.5,1.5,0.8c0.1,0,0.1,0.1,0.1,0.1
	c0.5,0.2,0.9,0.4,1.3,0.4c1.1,0,1.8-0.7,2.1-1l5-5c0.8-0.8,1.6-1.1,2.4-1.1c1,0,1.8,0.6,2.3,1.1l8.1,8.1
	C62.2,51.8,61.3,53.6,60.2,54.8z"/>
</svg>
