<?xml version="1.0" encoding="utf-8"?>
<!-- Generator: Adobe Illustrator 25.2.0, SVG Export Plug-In . SVG Version: 6.00 Build 0)  -->
<svg version="1.1" id="Layer_1" xmlns="http://www.w3.org/2000/svg" xmlns:xlink="http://www.w3.org/1999/xlink" x="0px" y="0px"
	 viewBox="0 0 65.2 65" style="enable-background:new 0 0 65.2 65;" xml:space="preserve">
<style type="text/css">
	.st0{fill:#00829D;}
</style>
<g>
	<g>
		<path class="st0" d="M54.9,21.8V7.6c0-0.6-0.5-1.2-1.2-1.2H43.5c-0.6,0-1.2,0.5-1.2,1.2v1.6l-8.9-8.9c-0.5-0.5-1.2-0.5-1.7,0
			L0.3,31.8C0,32.1-0.1,32.6,0.1,33s0.6,0.7,1.1,0.7h8.4v30.1c0,0.6,0.5,1.2,1.2,1.2h43.8c0.6,0,1.2-0.5,1.2-1.2v-30H64
			c0.5,0,0.9-0.3,1.1-0.7s0.1-0.9-0.3-1.3L54.9,21.8z M32.2,42.7c-2.6-0.1-5.1-0.9-7.3-2.3c-3.9-2.6-6.2-7.1-6.1-11.7
			c4-1.7,8.6-1.4,12.3,0.7l0,0c-0.2,0.5-0.3,1-0.5,1.5c0,0.1-0.1,0.2-0.1,0.3c-0.1,0.5-0.2,1-0.3,1.5c0,0.1,0,0.1,0,0.2
			c-0.1,0.5-0.1,1-0.1,1.4c0,0.1,0,0.1,0,0.2c0,0.1,0,0.3,0,0.4l-7-4.7c-0.5-0.4-1.3-0.2-1.6,0.3c-0.4,0.5-0.2,1.3,0.3,1.6l8.6,5.8
			l0,0c0.1,0.5,0.2,0.9,0.3,1.4c0,0.1,0,0.2,0.1,0.2c0.1,0.5,0.3,1,0.5,1.4c0,0.1,0.1,0.2,0.1,0.3C31.7,41.8,31.9,42.2,32.2,42.7
			L32.2,42.7z M42.8,24.3c-0.6-0.3-1.3,0-1.5,0.6l-7.1,16.3c-0.1-0.3-0.3-0.6-0.4-0.9c-0.1-0.2-0.2-0.5-0.3-0.7
			c-0.1-0.3-0.2-0.6-0.3-0.9C33.1,38.5,33,38.2,33,38c-0.1-0.3-0.1-0.7-0.2-1c0-0.2-0.1-0.5-0.1-0.7c0-0.3,0-0.7,0-1
			c0-0.2,0-0.5,0-0.7c0-0.4,0-0.7,0.1-1.1c0-0.2,0-0.5,0.1-0.7c0.1-0.4,0.2-0.8,0.2-1.1c0-0.2,0.1-0.4,0.1-0.6
			c0.1-0.5,0.3-1,0.5-1.4c0-0.1,0.1-0.2,0.1-0.3l0,0c1.9-4.3,5.8-7.3,10.4-8.1c2.6,3.9,3,8.9,1.2,13.2c-1.7,3.8-5,6.7-9,7.8L43.5,26
			C43.6,25.3,43.4,24.6,42.8,24.3z M54.5,31.4c-0.6,0-1.2,0.5-1.2,1.2v30.1H35.1V44.8c5.4-0.9,10.1-4.4,12.3-9.5
			c2.3-5.3,1.6-11.4-1.8-16.1c-0.2-0.3-0.7-0.5-1.1-0.5c-5.3,0.6-9.9,3.8-12.4,8.4c-4.6-2.6-10.2-2.7-15-0.4c-0.4,0.2-0.6,0.6-0.7,1
			C16,33.5,18.7,39,23.5,42.2c2.7,1.8,5.8,2.7,9,2.7c0.1,0,0.1,0,0.2,0v17.6H11.9V32.6c0-0.6-0.5-1.2-1.2-1.2H4L32.6,2.8l10,10
			c0.3,0.3,0.8,0.4,1.3,0.3c0.4-0.2,0.7-0.6,0.7-1.1V8.8h7.9v13.5c0,0.3,0.1,0.6,0.3,0.8l8.3,8.3C61.1,31.4,54.5,31.4,54.5,31.4z"/>
	</g>
</g>
</svg>
