<?xml version="1.0" encoding="utf-8"?>
<!-- Generator: Adobe Illustrator 25.2.0, SVG Export Plug-In . SVG Version: 6.00 Build 0)  -->
<svg version="1.1" id="Layer_1" xmlns="http://www.w3.org/2000/svg" xmlns:xlink="http://www.w3.org/1999/xlink" x="0px" y="0px"
	 viewBox="0 0 65 75" style="enable-background:new 0 0 65 75;" xml:space="preserve">
<style type="text/css">
	.st0{fill:#00829D;}
</style>
<g>
	<path class="st0" d="M65,75H23.8C19,75,15,71.1,15,66.2V8.8c0-3.4-2.8-6.2-6.2-6.2C8.1,2.6,7.6,2,7.6,1.4S8.1,0,8.8,0h48.8
		c4.8,0,8.8,3.9,8.8,8.8v65C66.2,74.4,65.7,75,65,75z M14.9,2.5c1.6,1.6,2.6,3.8,2.6,6.2v57.5c0,3.4,2.8,6.2,6.2,6.2h40V8.8
		c0-3.4-2.8-6.2-6.2-6.2H14.9V2.5z"/>
	<path class="st0" d="M16.2,67.5H8.8C4,67.5,0,63.6,0,58.7v-50C0,3.9,3.9,0,8.8,0H25c0.7,0,1.2,0.6,1.2,1.2S25.7,2.5,25,2.5H8.8
		c-3.4,0-6.2,2.8-6.2,6.2v50c0,3.4,2.8,6.2,6.2,6.2h7.5c0.7,0,1.2,0.6,1.2,1.2S16.9,67.5,16.2,67.5z"/>
	<path class="st0" d="M57.5,57.5H23.8c-0.7,0-1.2-0.6-1.2-1.2s0.6-1.2,1.2-1.2h33.8c0.7,0,1.2,0.6,1.2,1.2S58.2,57.5,57.5,57.5z"/>
	<path class="st0" d="M57.5,50H23.8c-0.7,0-1.2-0.6-1.2-1.2s0.6-1.2,1.2-1.2h33.8c0.7,0,1.2,0.6,1.2,1.2S58.2,50,57.5,50z"/>
	<path class="st0" d="M57.5,37.5H23.8c-0.7,0-1.2-0.6-1.2-1.2s0.6-1.2,1.2-1.2h33.8c0.7,0,1.2,0.6,1.2,1.2S58.2,37.5,57.5,37.5z"/>
	<path class="st0" d="M57.5,32.5H23.8c-0.7,0-1.2-0.6-1.2-1.2s0.6-1.2,1.2-1.2h33.8c0.7,0,1.2,0.6,1.2,1.2S58.2,32.5,57.5,32.5z"/>
	<path class="st0" d="M57.5,27.5H23.8c-0.7,0-1.2-0.6-1.2-1.2s0.6-1.2,1.2-1.2h33.8c0.7,0,1.2,0.6,1.2,1.2S58.2,27.5,57.5,27.5z"/>
	<path class="st0" d="M57.5,22.5H41.2c-0.7,0-1.2-0.6-1.2-1.2s0.6-1.2,1.2-1.2h16.2c0.7,0,1.2,0.6,1.2,1.2S58.2,22.5,57.5,22.5z"/>
	<path class="st0" d="M57.5,17.5H41.2c-0.7,0-1.2-0.6-1.2-1.2c0-0.7,0.6-1.2,1.2-1.2h16.2c0.7,0,1.2,0.6,1.2,1.2
		C58.8,16.9,58.2,17.5,57.5,17.5z"/>
	<path class="st0" d="M57.5,10H41.2C40.6,10,40,9.4,40,8.8s0.6-1.2,1.2-1.2h16.2c0.7,0,1.2,0.6,1.2,1.2S58.2,10,57.5,10z"/>
	<path class="st0" d="M57.5,62.5H23.8c-0.7,0-1.2-0.6-1.2-1.2s0.6-1.2,1.2-1.2h33.8c0.7,0,1.2,0.6,1.2,1.2S58.2,62.5,57.5,62.5z"/>
	<path class="st0" d="M36.2,22.5H23.8c-0.7,0-1.2-0.6-1.2-1.2V8.8c0-0.7,0.6-1.2,1.2-1.2h12.5c0.7,0,1.2,0.6,1.2,1.2v12.5
		C37.5,21.9,36.9,22.5,36.2,22.5z M25,20h10V10H25V20z"/>
</g>
</svg>
