<?xml version="1.0" encoding="utf-8"?>
<!-- Generator: Adobe Illustrator 25.2.0, SVG Export Plug-In . SVG Version: 6.00 Build 0)  -->
<svg version="1.1" id="Layer_1" xmlns="http://www.w3.org/2000/svg" xmlns:xlink="http://www.w3.org/1999/xlink" x="0px" y="0px"
	 viewBox="0 0 64.5 38.1" style="enable-background:new 0 0 64.5 38.1;" xml:space="preserve">
<style type="text/css">
	.st0{fill:#00829D;}
</style>
<path class="st0" d="M57.3,19.5c1.9-1.6,3-3.9,3-6.5c0-4.7-3.8-8.5-8.5-8.5s-8.5,3.8-8.5,8.5c0,2.6,1.2,4.9,3,6.5
	c-1.6,0.7-2.9,1.8-4,3.1c-1.4-1.2-3.1-2.1-4.8-2.7c3.2-1.8,5.3-5.3,5.3-9.2C42.9,4.8,38.1,0,32.2,0S21.5,4.8,21.5,10.7
	c0,3.9,2.1,7.4,5.3,9.2c-1.8,0.6-3.4,1.5-4.8,2.7c-1.1-1.3-2.5-2.4-4-3.1c1.9-1.6,3-3.9,3-6.5c0-4.7-3.8-8.5-8.5-8.5S4.1,8.3,4.1,13
	c0,2.6,1.2,4.9,3,6.5C2.9,21.5,0,25.8,0,30.8c0,1.5,1.2,2.8,2.8,2.8H16c-0.1,0.6-0.1,1.1-0.1,1.7c0,1.5,1.2,2.8,2.8,2.8h27.1
	c1.5,0,2.8-1.2,2.8-2.8c0-0.6,0-1.2-0.1-1.7h13.2c1.5,0,2.8-1.2,2.8-2.8C64.5,25.8,61.6,21.5,57.3,19.5z M46.2,13
	c0-3.1,2.6-5.7,5.7-5.7c3.1,0,5.7,2.6,5.7,5.7s-2.6,5.7-5.7,5.7S46.2,16.1,46.2,13z M24.4,10.7c0-4.4,3.5-7.9,7.9-7.9
	s7.9,3.5,7.9,7.9s-3.5,7.9-7.9,7.9C27.9,18.5,24.4,15,24.4,10.7z M6.9,13c0-3.1,2.6-5.7,5.7-5.7s5.7,2.6,5.7,5.7s-2.6,5.7-5.7,5.7
	C9.4,18.7,6.9,16.1,6.9,13z M2.8,30.8c0-5.4,4.4-9.8,9.8-9.8c3,0,5.7,1.4,7.5,3.5c-1.6,1.8-2.8,3.9-3.5,6.3H2.8z M45.8,35.3H18.7
	c0-0.6,0-1.2,0.1-1.7c0.1-1,0.3-1.9,0.7-2.8c0.5-1.4,1.2-2.7,2.1-3.8c0.6-0.8,1.3-1.5,2.1-2.1c2.3-1.9,5.3-3.1,8.6-3.1
	s6.3,1.2,8.6,3.1c0.8,0.6,1.4,1.3,2.1,2.1c0.9,1.1,1.6,2.4,2.1,3.8c0.3,0.9,0.5,1.8,0.7,2.8C45.7,34.2,45.8,34.7,45.8,35.3z
	 M47.9,30.8c-0.7-2.4-1.9-4.5-3.5-6.3c1.8-2.1,4.5-3.5,7.5-3.5c5.4,0,9.8,4.4,9.8,9.8H47.9z"/>
</svg>
