<?xml version="1.0" encoding="utf-8"?>
<!-- Generator: Adobe Illustrator 25.2.0, SVG Export Plug-In . SVG Version: 6.00 Build 0)  -->
<svg version="1.1" id="Layer_1" xmlns="http://www.w3.org/2000/svg" xmlns:xlink="http://www.w3.org/1999/xlink" x="0px" y="0px"
	 viewBox="0 0 13 13" style="enable-background:new 0 0 13 13;" xml:space="preserve">
<style type="text/css">
	.st0{fill:#00829D;}
</style>
<g>
	<path class="st0" d="M12.4,13H6c-0.4,0-0.6-0.3-0.6-0.6s0.3-0.6,0.6-0.6h5.7V1.3H6C5.6,1.3,5.4,1,5.4,0.6S5.6,0,6,0h6.4
		C12.7,0,13,0.3,13,0.6v11.7C13,12.7,12.7,13,12.4,13z"/>
	<path class="st0" d="M8.1,7.1H0.6C0.3,7.1,0,6.9,0,6.5s0.3-0.6,0.6-0.6h7.5c0.4,0,0.6,0.3,0.6,0.6C8.7,6.9,8.4,7.1,8.1,7.1z"/>
	<path class="st0" d="M5,10.3c-0.4,0-0.6-0.3-0.6-0.6c0-0.2,0.1-0.3,0.2-0.4l2.8-2.8L4.6,3.7C4.4,3.4,4.4,3,4.6,2.8
		c0.2-0.2,0.6-0.2,0.9,0L8.7,6c0.2,0.2,0.2,0.6,0,0.9l0,0l-3.2,3.2C5.4,10.3,5.2,10.3,5,10.3z"/>
</g>
</svg>
