<?xml version="1.0" encoding="utf-8"?>
<!-- Generator: Adobe Illustrator 25.2.0, SVG Export Plug-In . SVG Version: 6.00 Build 0)  -->
<svg version="1.1" id="Layer_1" xmlns="http://www.w3.org/2000/svg" xmlns:xlink="http://www.w3.org/1999/xlink" x="0px" y="0px"
	 viewBox="0 0 64.8 64.8" style="enable-background:new 0 0 64.8 64.8;" xml:space="preserve">
<style type="text/css">
	.st0{fill:#00829D;}
</style>
<g>
	<path class="st0" d="M32.4,3.6c15.9,0,28.8,12.9,28.8,28.8S48.3,61.2,32.4,61.2S3.6,48.3,3.6,32.4S16.5,3.6,32.4,3.6 M32.4,0
		C14.5,0,0,14.5,0,32.4s14.5,32.4,32.4,32.4s32.4-14.5,32.4-32.4S50.3,0,32.4,0z M48.6,18c-0.5,0-1,0.2-1.4,0.6L26.9,42.3l-9.4-9.4
		c-0.7-0.7-1.9-0.7-2.5,0c-0.7,0.7-0.7,1.8,0,2.5l10.8,10.8c0.3,0.3,0.8,0.5,1.3,0.5h0.1c0.5,0,1-0.2,1.3-0.6L49.9,21
		c0.6-0.8,0.6-1.9-0.2-2.5l0,0C49.4,18.1,49,18,48.6,18z"/>
</g>
</svg>
